<svg xmlns="http://www.w3.org/2000/svg" xmlns:xlink="http://www.w3.org/1999/xlink" xmlns:lucid="lucid" width="1080" height="460"><g transform="translate(-120 -200)" lucid:page-tab-id="0_0"><path d="M140 220h1040v180H140z" stroke="#000" stroke-opacity="0" stroke-width="2" fill-opacity="0"/><path d="M360 284c0-2.2 1.8-4 4-4h72c2.2 0 4 1.8 4 4v52c0 2.2-1.8 4-4 4h-72c-2.2 0-4-1.8-4-4z" stroke="#000" stroke-opacity="0" stroke-width="2" fill="#b391b5"/><use xlink:href="#a" transform="matrix(1,0,0,1,365,285) translate(18.728395061728392 29.84722222222222)"/><path d="M520 284c0-2.2 1.8-4 4-4h72c2.2 0 4 1.8 4 4v52c0 2.2-1.8 4-4 4h-72c-2.2 0-4-1.8-4-4z" stroke="#000" stroke-opacity="0" stroke-width="2" fill="#ffc374"/><use xlink:href="#a" transform="matrix(1,0,0,1,525,285) translate(18.728395061728392 29.84722222222222)"/><path d="M680 284c0-2.2 1.8-4 4-4h72c2.2 0 4 1.8 4 4v52c0 2.2-1.8 4-4 4h-72c-2.2 0-4-1.8-4-4z" stroke="#000" stroke-opacity="0" stroke-width="2" fill="#a3d977"/><use xlink:href="#a" transform="matrix(1,0,0,1,685,285) translate(18.728395061728392 29.84722222222222)"/><path d="M840 284c0-2.2 1.8-4 4-4h72c2.2 0 4 1.8 4 4v52c0 2.2-1.8 4-4 4h-72c-2.2 0-4-1.8-4-4z" stroke="#000" stroke-opacity="0" stroke-width="2" fill="#99d2f2"/><use xlink:href="#a" transform="matrix(1,0,0,1,845,285) translate(18.728395061728392 29.84722222222222)"/><path d="M1080 280h80v60h-80z" stroke="#000" stroke-opacity="0" stroke-width="2" fill="#f5b5c8"/><use xlink:href="#b" transform="matrix(1,0,0,1,1085,285) translate(8.549999999999997 30.025)"/><path d="M761 292.58h60.5" stroke="#666" stroke-width="2" fill="none"/><path d="M761.03 293.58H760v-2h1.03z" fill="#666"/><path d="M836.76 292.58l-14.26 4.63v-9.26z" stroke="#666" stroke-width="2" fill="#666"/><path d="M921 292.58h140.5" stroke="#666" stroke-width="2" fill="none"/><path d="M921.03 293.58H920v-2h1.03z" fill="#666"/><path d="M1076.76 292.58l-14.26 4.63v-9.26z" stroke="#666" stroke-width="2" fill="#666"/><path d="M601 293.82h60.5" stroke="#666" stroke-width="2" fill="none"/><path d="M601.03 294.82H600v-2h1.03z" fill="#666"/><path d="M676.76 293.82l-14.26 4.63v-9.27z" stroke="#666" stroke-width="2" fill="#666"/><path d="M441 293.82h60.5" stroke="#666" stroke-width="2" fill="none"/><path d="M441.03 294.82H440v-2h1.03z" fill="#666"/><path d="M516.76 293.82l-14.26 4.63v-9.27z" stroke="#666" stroke-width="2" fill="#666"/><path d="M1079 327.22H938.5" stroke="#666" stroke-width="2" fill="none"/><path d="M1080 328.22h-1.03v-2h1.03z" fill="#666"/><path d="M923.24 327.22l14.26-4.64v9.27z" stroke="#666" stroke-width="2" fill="#666"/><path d="M839 327.22h-60.5" stroke="#666" stroke-width="2" fill="none"/><path d="M840 328.22h-1.03v-2H840z" fill="#666"/><path d="M763.24 327.22l14.26-4.64v9.27z" stroke="#666" stroke-width="2" fill="#666"/><path d="M679 328.46h-60.5" stroke="#666" stroke-width="2" fill="none"/><path d="M680 329.46h-1.03v-2H680z" fill="#666"/><path d="M603.24 328.46l14.26-4.64v9.27z" stroke="#666" stroke-width="2" fill="#666"/><path d="M519 327.22h-60.5" stroke="#666" stroke-width="2" fill="none"/><path d="M520 328.22h-1.03v-2H520z" fill="#666"/><path d="M443.24 327.22l14.26-4.64v9.27z" stroke="#666" stroke-width="2" fill="#666"/><path d="M272 240c15.46 0 28 13.43 28 30s-12.54 30-28 30h-84c-15.46 0-28-13.43-28-30s12.54-30 28-30z" stroke="#000" stroke-opacity="0" stroke-width="2" fill="#83bbe5"/><use xlink:href="#c" transform="matrix(1,0,0,1,165,245) translate(25.549999999999997 30.025)"/><path d="M272 320c15.46 0 28 13.43 28 30s-12.54 30-28 30h-84c-15.46 0-28-13.43-28-30s12.54-30 28-30z" stroke="#000" stroke-opacity="0" stroke-width="2" fill="#83bbe5"/><use xlink:href="#d" transform="matrix(1,0,0,1,165,325) translate(39.55 30.025)"/><path d="M359 328.46h-29V350h-11.5" stroke="#666" stroke-width="2" fill="none"/><path d="M360 329.46h-1.03v-2H360z" fill="#666"/><path d="M303.24 350l14.26-4.64v9.28z" stroke="#666" stroke-width="2" fill="#666"/><path d="M301 270h29v20.1h11.5" stroke="#666" stroke-width="2" fill="none"/><path d="M301.03 271h-1.1l.07-1-.04-1h1.07z" fill="#666"/><path d="M356.76 290.1l-14.26 4.64v-9.27z" stroke="#666" stroke-width="2" fill="#666"/><path d="M310 460h700v180H310z" stroke="#000" stroke-opacity="0" stroke-width="2" fill-opacity="0"/><path d="M530 524c0-2.2 1.8-4 4-4h72c2.2 0 4 1.8 4 4v52c0 2.2-1.8 4-4 4h-72c-2.2 0-4-1.8-4-4z" stroke="#000" stroke-opacity="0" stroke-width="2" fill="#b391b5"/><use xlink:href="#a" transform="matrix(1,0,0,1,535,525) translate(18.728395061728392 29.84722222222222)"/><path d="M750 484c0-2.2 1.8-4 4-4h72c2.2 0 4 1.8 4 4v52c0 2.2-1.8 4-4 4h-72c-2.2 0-4-1.8-4-4z" stroke="#000" stroke-opacity="0" stroke-width="2" fill="#ffc374"/><use xlink:href="#a" transform="matrix(1,0,0,1,755,485) translate(18.728395061728392 29.84722222222222)"/><path d="M442 480c15.46 0 28 13.43 28 30s-12.54 30-28 30h-84c-15.46 0-28-13.43-28-30s12.54-30 28-30z" stroke="#000" stroke-opacity="0" stroke-width="2" fill="#83bbe5"/><use xlink:href="#c" transform="matrix(1,0,0,1,335,485) translate(25.549999999999997 30.025)"/><path d="M442 560c15.46 0 28 13.43 28 30s-12.54 30-28 30h-84c-15.46 0-28-13.43-28-30s12.54-30 28-30z" stroke="#000" stroke-opacity="0" stroke-width="2" fill="#83bbe5"/><use xlink:href="#d" transform="matrix(1,0,0,1,335,565) translate(39.55 30.025)"/><path d="M529 568.46h-29V590h-11.5" stroke="#666" stroke-width="2" fill="none"/><path d="M530 569.46h-1.03v-2H530z" fill="#666"/><path d="M473.24 590l14.26-4.64v9.28z" stroke="#666" stroke-width="2" fill="#666"/><path d="M471 510h29v20.1h11.5" stroke="#666" stroke-width="2" fill="none"/><path d="M471.03 511h-1.1l.07-1-.04-1h1.07z" fill="#666"/><path d="M526.76 530.1l-14.26 4.64v-9.27z" stroke="#666" stroke-width="2" fill="#666"/><path d="M690 520l40 30-40 30-40-30z" stroke="#000" stroke-opacity="0" stroke-width="2" fill="#3aa6dd"/><use xlink:href="#e" transform="matrix(1,0,0,1,655,525) translate(19.055 30.025)"/><path d="M611 550h20.5" stroke="#666" stroke-width="2" fill="none"/><path d="M611.03 551H610v-2h1.03z" fill="#666"/><path d="M646.76 550l-14.26 4.64v-9.28z" stroke="#666" stroke-width="2" fill="#666"/><path d="M704.13 511H691v8h-2v-10h15.13zm27.37 0h-5.63v-2h5.63z" fill="#666"/><path d="M691 520.75l-1-.75-1 .75v-1.78h2zM746.76 510l-14.26 4.64v-9.28z" fill="#666"/><path d="M750 510l-18.5 6v-12zm-16.5 3.26l10.03-3.26-10.03-3.26z" fill="#666"/><use xlink:href="#f" transform="matrix(1,0,0,1,704.1296296296297,502) translate(0 10.666666666666668)"/><path d="M750 564c0-2.2 1.8-4 4-4h72c2.2 0 4 1.8 4 4v52c0 2.2-1.8 4-4 4h-72c-2.2 0-4-1.8-4-4z" stroke="#000" stroke-opacity="0" stroke-width="2" fill="#a3d977"/><use xlink:href="#a" transform="matrix(1,0,0,1,755,565) translate(18.728395061728392 29.84722222222222)"/><path d="M910 564c0-2.2 1.8-4 4-4h72c2.2 0 4 1.8 4 4v52c0 2.2-1.8 4-4 4h-72c-2.2 0-4-1.8-4-4z" stroke="#000" stroke-opacity="0" stroke-width="2" fill="#99d2f2"/><use xlink:href="#a" transform="matrix(1,0,0,1,915,565) translate(18.728395061728392 29.84722222222222)"/><path d="M691 589h15.5v2H689v-10h2zm40.5 0v2h-8v-2z" fill="#666"/><path d="M691 581.03h-2v-1.78l1 .75 1-.75zM746.76 590l-14.26 4.64v-9.28z" fill="#666"/><path d="M750 590l-18.5 6v-12zm-16.5 3.26l10.03-3.26-10.03-3.26z" fill="#666"/><use xlink:href="#g" transform="matrix(1,0,0,1,706.5,582) translate(0 10.666666666666668)"/><path d="M831 590h60.5" stroke="#666" stroke-width="2" fill="none"/><path d="M831.03 591H830v-2h1.03z" fill="#666"/><path d="M906.76 590l-14.26 4.64v-9.28z" stroke="#666" stroke-width="2" fill="#666"/><defs><path fill="#fff" d="M30 0v-248h33v221h125V0H30" id="h"/><path fill="#fff" d="M24-231v-30h32v30H24zM24 0v-190h32V0H24" id="i"/><path fill="#fff" d="M117-194c89-4 53 116 60 194h-32v-121c0-31-8-49-39-48C34-167 62-67 57 0H25l-1-190h30c1 10-1 24 2 32 11-22 29-35 61-36" id="j"/><path fill="#fff" d="M143 0L79-87 56-68V0H24v-261h32v163l83-92h37l-77 82L181 0h-38" id="k"/><g id="a"><use transform="matrix(0.04938271604938272,0,0,0.04938271604938272,0,0)" xlink:href="#h"/><use transform="matrix(0.04938271604938272,0,0,0.04938271604938272,9.876543209876544,0)" xlink:href="#i"/><use transform="matrix(0.04938271604938272,0,0,0.04938271604938272,13.777777777777779,0)" xlink:href="#j"/><use transform="matrix(0.04938271604938272,0,0,0.04938271604938272,23.654320987654323,0)" xlink:href="#k"/></g><path fill="#fff" d="M185-189c-5-48-123-54-124 2 14 75 158 14 163 119 3 78-121 87-175 55-17-10-28-26-33-46l33-7c5 56 141 63 141-1 0-78-155-14-162-118-5-82 145-84 179-34 5 7 8 16 11 25" id="l"/><path fill="#fff" d="M100-194c63 0 86 42 84 106H49c0 40 14 67 53 68 26 1 43-12 49-29l28 8c-11 28-37 45-77 45C44 4 14-33 15-96c1-61 26-98 85-98zm52 81c6-60-76-77-97-28-3 7-6 17-6 28h103" id="m"/><path fill="#fff" d="M114-163C36-179 61-72 57 0H25l-1-190h30c1 12-1 29 2 39 6-27 23-49 58-41v29" id="n"/><path fill="#fff" d="M108 0H70L1-190h34L89-25l56-165h34" id="o"/><g id="b"><use transform="matrix(0.05,0,0,0.05,0,0)" xlink:href="#l"/><use transform="matrix(0.05,0,0,0.05,12,0)" xlink:href="#m"/><use transform="matrix(0.05,0,0,0.05,22,0)" xlink:href="#n"/><use transform="matrix(0.05,0,0,0.05,27.950000000000003,0)" xlink:href="#o"/><use transform="matrix(0.05,0,0,0.05,36.95,0)" xlink:href="#m"/><use transform="matrix(0.05,0,0,0.05,46.95,0)" xlink:href="#n"/></g><path fill="#fff" d="M140-251c81 0 123 46 123 126C263-46 219 4 140 4 59 4 17-45 17-125s42-126 123-126zm0 227c63 0 89-41 89-101s-29-99-89-99c-61 0-89 39-89 99S79-25 140-24" id="p"/><path fill="#fff" d="M115-194c55 1 70 41 70 98S169 2 115 4C84 4 66-9 55-30l1 105H24l-1-265h31l2 30c10-21 28-34 59-34zm-8 174c40 0 45-34 45-75s-6-73-45-74c-42 0-51 32-51 76 0 43 10 73 51 73" id="q"/><path fill="#fff" d="M141-36C126-15 110 5 73 4 37 3 15-17 15-53c-1-64 63-63 125-63 3-35-9-54-41-54-24 1-41 7-42 31l-33-3c5-37 33-52 76-52 45 0 72 20 72 64v82c-1 20 7 32 28 27v20c-31 9-61-2-59-35zM48-53c0 20 12 33 32 33 41-3 63-29 60-74-43 2-92-5-92 41" id="r"/><path fill="#fff" d="M59-47c-2 24 18 29 38 22v24C64 9 27 4 27-40v-127H5v-23h24l9-43h21v43h35v23H59v120" id="s"/><path fill="#fff" d="M100-194c62-1 85 37 85 99 1 63-27 99-86 99S16-35 15-95c0-66 28-99 85-99zM99-20c44 1 53-31 53-75 0-43-8-75-51-75s-53 32-53 75 10 74 51 75" id="t"/><g id="c"><use transform="matrix(0.05,0,0,0.05,0,0)" xlink:href="#p"/><use transform="matrix(0.05,0,0,0.05,14,0)" xlink:href="#q"/><use transform="matrix(0.05,0,0,0.05,24,0)" xlink:href="#m"/><use transform="matrix(0.05,0,0,0.05,34,0)" xlink:href="#n"/><use transform="matrix(0.05,0,0,0.05,39.95,0)" xlink:href="#r"/><use transform="matrix(0.05,0,0,0.05,49.95,0)" xlink:href="#s"/><use transform="matrix(0.05,0,0,0.05,54.95,0)" xlink:href="#i"/><use transform="matrix(0.05,0,0,0.05,58.900000000000006,0)" xlink:href="#t"/><use transform="matrix(0.05,0,0,0.05,68.9,0)" xlink:href="#j"/></g><path fill="#fff" d="M233-177c-1 41-23 64-60 70L243 0h-38l-65-103H63V0H30v-248c88 3 205-21 203 71zM63-129c60-2 137 13 137-47 0-61-80-42-137-45v92" id="u"/><path fill="#fff" d="M135-143c-3-34-86-38-87 0 15 53 115 12 119 90S17 21 10-45l28-5c4 36 97 45 98 0-10-56-113-15-118-90-4-57 82-63 122-42 12 7 21 19 24 35" id="v"/><path fill="#fff" d="M84 4C-5 8 30-112 23-190h32v120c0 31 7 50 39 49 72-2 45-101 50-169h31l1 190h-30c-1-10 1-25-2-33-11 22-28 36-60 37" id="w"/><path fill="#fff" d="M24 0v-261h32V0H24" id="x"/><g id="d"><use transform="matrix(0.05,0,0,0.05,0,0)" xlink:href="#u"/><use transform="matrix(0.05,0,0,0.05,12.950000000000001,0)" xlink:href="#m"/><use transform="matrix(0.05,0,0,0.05,22.950000000000003,0)" xlink:href="#v"/><use transform="matrix(0.05,0,0,0.05,31.950000000000003,0)" xlink:href="#w"/><use transform="matrix(0.05,0,0,0.05,41.95,0)" xlink:href="#x"/><use transform="matrix(0.05,0,0,0.05,45.900000000000006,0)" xlink:href="#s"/></g><g id="e"><use transform="matrix(0.05,0,0,0.05,0,0)" xlink:href="#v"/><use transform="matrix(0.05,0,0,0.05,9,0)" xlink:href="#q"/><use transform="matrix(0.05,0,0,0.05,19,0)" xlink:href="#x"/><use transform="matrix(0.05,0,0,0.05,22.95,0)" xlink:href="#i"/><use transform="matrix(0.05,0,0,0.05,26.899999999999995,0)" xlink:href="#s"/></g><path d="M137-103V0h-34v-103L8-248h37l75 118 75-118h37" id="y"/><path d="M100-194c63 0 86 42 84 106H49c0 40 14 67 53 68 26 1 43-12 49-29l28 8c-11 28-37 45-77 45C44 4 14-33 15-96c1-61 26-98 85-98zm52 81c6-60-76-77-97-28-3 7-6 17-6 28h103" id="z"/><path d="M135-143c-3-34-86-38-87 0 15 53 115 12 119 90S17 21 10-45l28-5c4 36 97 45 98 0-10-56-113-15-118-90-4-57 82-63 122-42 12 7 21 19 24 35" id="A"/><g id="f"><use transform="matrix(0.03703703703703704,0,0,0.03703703703703704,0,0)" xlink:href="#y"/><use transform="matrix(0.03703703703703704,0,0,0.03703703703703704,7.666666666666667,0)" xlink:href="#z"/><use transform="matrix(0.03703703703703704,0,0,0.03703703703703704,15.074074074074076,0)" xlink:href="#A"/></g><path d="M190 0L58-211 59 0H30v-248h39L202-35l-2-213h31V0h-41" id="B"/><path d="M100-194c62-1 85 37 85 99 1 63-27 99-86 99S16-35 15-95c0-66 28-99 85-99zM99-20c44 1 53-31 53-75 0-43-8-75-51-75s-53 32-53 75 10 74 51 75" id="C"/><g id="g"><use transform="matrix(0.03703703703703704,0,0,0.03703703703703704,0,0)" xlink:href="#B"/><use transform="matrix(0.03703703703703704,0,0,0.03703703703703704,9.592592592592593,0)" xlink:href="#C"/></g></defs></g></svg>